<?xml version="1.0" encoding="UTF-8"?>
<svg width="512" height="512" viewBox="0 0 512 512" fill="none" xmlns="http://www.w3.org/2000/svg">
    <!-- پس‌زمینه دایره‌ای -->
    <circle cx="256" cy="256" r="256" fill="url(#gradient)"/>
    
    <!-- نماد وب -->
    <path d="M256 128C185.308 128 128 185.308 128 256C128 326.692 185.308 384 256 384C326.692 384 384 326.692 384 256C384 185.308 326.692 128 256 128ZM256 352C203.1 352 160 308.9 160 256C160 203.1 203.1 160 256 160C308.9 160 352 203.1 352 256C352 308.9 308.9 352 256 352Z" fill="white"/>
    <path d="M256 192C221.49 192 192 221.49 192 256C192 290.51 221.49 320 256 320C290.51 320 320 290.51 320 256C320 221.49 290.51 192 256 192ZM256 288C234.16 288 224 277.84 224 256C224 234.16 234.16 224 256 224C277.84 224 288 234.16 288 256C288 277.84 277.84 288 256 288Z" fill="white"/>
    <circle cx="256" cy="256" r="16" fill="white"/>
    
    <!-- گرادیانت -->
    <defs>
        <linearGradient id="gradient" x1="0" y1="0" x2="512" y2="512" gradientUnits="userSpaceOnUse">
            <stop offset="0%" stop-color="#0d6efd"/>
            <stop offset="100%" stop-color="#0dcaf0"/>
        </linearGradient>
    </defs>
</svg> 